name processed_emg_signals
nRows=82
nColumns=7
 
endheader
time	RGLTMED	RRF	RADDLONG	RST	RTA	RGM
1.96	0.1791859068396761	0.9031453901494804	0.4098215346470343	0.0220022240477562	0.3157672070820723	0.4609357433146961
1.961	0.178544297962151	0.8985311027998851	0.4077983905490597	0.0213616457410473	0.3159192892912483	0.4592738299060181
1.962	0.1779541454340361	0.8938308936394439	0.4057493968345477	0.0207803944698434	0.3160902222961754	0.4576218700800152
1.963	0.1774140910406047	0.8890460121293191	0.4036766857308854	0.0202611869332309	0.3162791990611449	0.4559829944039286
1.964	0.1769227701159091	0.8841776831183917	0.4015824214362206	0.019806757533038	0.3164852916541931	0.4543603094677951
1.965	0.176478813183277	0.8792271082399215	0.3994687971339932	0.019419855893074	0.3167074535188179	0.4527568915251221
1.966	0.1760808475785356	0.8741954674361555	0.3973380320037368	0.0191032442977434	0.3169445220861608	0.4511757801639235
1.967	0.1757274990550317	0.8690839206047447	0.3951923682309319	0.0188596950511845	0.3171952217223007	0.4496199720216961
1.968	0.1754173933707707	0.863893609362039	0.3930340680201398	0.0186919877585811	0.3174581670045035	0.4480924145570714
1.969	0.1751491578576232	0.8586256589175392	0.3908654106145756	0.0186029065314756	0.3177318663194447	0.4465959998899865
1.97	0.1749214229729334	0.8532811800528787	0.3886886893267702	0.018595237119198	0.3180147257752996	0.4451335587214792
1.971	0.1747328238333569	0.8478612711976612	0.3865062085838403	0.0186717639691335	0.3183050534186659	0.4437078543433249
1.972	0.1745820017307365	0.8423670205935486	0.3843202809917387	0.0188352672187892	0.3186010637460218	0.4423215767468239
1.973	0.1744676056296928	0.8367995085367932	0.3821332244223245	0.0190885196229447	0.3189008824982989	0.4409773368389199
1.974	0.1743882936460257	0.8311598096882664	0.3799473591274999	0.0194342834196622	0.3192025517260482	0.4396776607726325
1.975	0.1743427345046283	0.8254489954388767	0.3777650048846164	0.0198753071389729	0.3195040351115621	0.4384249843974496
1.976	0.1743296089751592	0.8196681363181163	0.3755884781777183	0.0204143223586013	0.3198032235334163	0.4372216478343541
1.977	0.1743476112832314	0.8138183044336581	0.3734200894198737	0.0210540404112255	0.3200979408578369	0.4360698901797745
1.978	0.1743954504948212	0.8079005759298891	0.3712621402212579	0.0217971490480547	0.3203859499404744	0.4349718443427982
1.979	0.1744718518718173	0.8019160334531348	0.3691169207082556	0.0226463090635723	0.320664958821251	0.4339295320204671
1.98	0.1745755581964298	0.7958657686112445	0.3669867068982165	0.0236041508864118	0.3209326270941088	0.432944858816963
1.981	0.1747053310625382	0.7897508844144785	0.3648737581342509	0.0246732711411937	0.32118657243267	0.432019609513393
1.982	0.1748599521316182	0.7835724976843899	0.3627803145844231	0.0258562291863518	0.3214243772521331	0.4311554434958952
1.983	0.1750382243508146	0.7773317414170139	0.3607085948090987	0.0271555436328491	0.3216435954869548	0.4303538903504043
1.984	0.1752389731303519	0.7710297670873633	0.3586607934006068	0.0285736888488667	0.3218417594631123	0.4296163456324852
1.985	0.1754610474772984	0.7646677468840822	0.3566390786987115	0.0301130914555753	0.3220163868427853	0.4289440668205208
1.986	0.1757033210824551	0.7582468758656402	0.3546455905850171	0.031776126819269	0.322164987618424	0.4283381694599588
1.987	0.1759646933573329	0.7517683740328412	0.3526824383592714	0.0335651155452289	0.3222850711322615	0.4277996235062831
1.988	0.176244090418704	0.7452334883156159	0.3507516986992834	0.0354823199787494	0.3223741530966486	0.4273292498747274
1.989	0.1765404660186354	0.7386434944750903	0.3488554137065909	0.0375299407189087	0.3224297625902154	0.4269277172056601
1.99	0.1768528024183978	0.7319996989240178	0.346995589038942	0.0397101131506324	0.3224494490044253	0.4265955388561507
1.991	0.1771801112049393	0.7253034404693223	0.3451741921306924	0.0420249040007115	0.3224307889147247	0.426333070129752
1.992	0.1775214340484926	0.7185560919804026	0.3433931505015647	0.0444763079233852	0.3223713928503193	0.4261405057578786
1.993	0.1778758433992625	0.7117590619848939	0.3416543501536179	0.0470662441212919	0.3222689119365899	0.4260178776471573
1.994	0.1782424431210753	0.7049137961918724	0.3399596340560485	0.0497965530075581	0.322121044384662	0.4259650529076284
1.995	0.1786203690593673	0.6980217789399814	0.3383108007163578	0.0526689929150794	0.3219255418034658	0.4259817321767098
1.996	0.1790087895403691	0.6910845345662929	0.3367096028366407	0.0556852368588776	0.3216802153106827	0.4260674482533944
1.997	0.1794069057987004	0.6841036286900044	0.3351577460527366	0.0588468693575846	0.3213829414208469	0.4262215650565547
1.998	0.1798139523304883	0.6770806694032582	0.3336568877540747	0.0621553833199008	0.3210316676910265	0.426443276919989
1.999	0.1802291971692122	0.6700173083603933	0.3322086359816866	0.0656121770019896	0.3206244181073484	0.4267316082355328
2.0	0.1806519420818032	0.662915241755335	0.3308145484014409	0.0692185510416581	0.3201592981984872	0.4270854134543359
2.001	0.1810815226825153	0.6557762111758593	0.3294761313493414	0.0729757055752683	0.3196344998651602	0.4275033774547355
2.0020000000000002	0.1815173084623247	0.6486020043224041	0.3281948389454546	0.0768847374429838	0.319048305916999	0.4279840162839545
2.003	0.1819587027318458	0.6413944555780896	0.3269720722727092	0.0809466374880256	0.3183990943104163	0.4285256782793334
2.004	0.1824051424766164	0.6341554464163157	0.3258091786164618	0.0851622879553495	0.3176853420829055	0.4291265455733114
2.005	0.1828560981239272	0.6268869056322408	0.3247074507611271	0.0895324599950709	0.316905628980935	0.4297846359851281
2.0060000000000002	0.1833110732213722	0.6195908093850816	0.3236681263395164	0.0940578112758782	0.316058640780104	0.4304978053005784
2.007	0.1837696040277819	0.6122691810393716	0.3226923872309873	0.0987388837135457	0.3151431722972873	0.4312637499401583
2.008	0.1842312590184683	0.6049240907949397	0.3217813590032639	0.1035761013196648	0.3141581300956235	0.4320800100144379
2.009	0.18469563830723	0.5975576550975812	0.3209361103934332	0.1085697681755472	0.3131025348836548	0.4329439727646159
2.0100000000000002	0.1851623729881779	0.590172035824501	0.3201576528226548	0.1137200665362912	0.311975523610384	0.4338528763852481
2.011	0.185631124400898	0.5827694392413384	0.3194469399396538	0.1190270550698528	0.3107763512578993	0.4348038142250455
2.012	0.1861015833224444	0.5753521147308013	0.3188048671879568	0.1244906672357841	0.3095043923331073	0.4357937393608387
2.013	0.1865734690901353	0.5679223532962939	0.3182322713923733	0.1301107098080751	0.3081591420594609	0.4368194695385683
2.0140000000000002	0.1870465286593932	0.560482485846599	0.3177299303608938	0.1358868615464259	0.3067402172691069	0.4378776924743167
2.015	0.1875205356006639	0.5530348812697581	0.3172985624989921	0.1418186720200273	0.30524735699488	0.4389649715075904
2.016	0.1879952890401037	0.5455819443056431	0.316938826434861	0.1479055605878593	0.3036804227610314	0.4400777515983013
2.017	0.1884706125484361	0.538126113228126	0.3166513206549281	0.1541468155392841	0.3020393985710574	0.4412123656580123
2.0180000000000002	0.1889463529827305	0.5306698573484331	0.3164365831504184	0.1605415933984212	0.3003243905908533	0.4423650412048973
2.019	0.1894223792865068	0.5232156743511914	0.3162950910761231	0.1670889183953898	0.2985356265256094	0.4435319073304209
2.02	0.1898985812531206	0.5157660874749088	0.316227260423134	0.1737876821072196	0.2966734546895707	0.4447090019643576
2.021	0.1903748682581419	0.5083236425477442	0.3162334457077098	0.1806366432706734	0.2947383427689398	0.4458922794231012
2.0220000000000002	0.1908511679660207	0.5008909048902234	0.316313939678255	0.1876344277690515	0.292730876280064	0.4470776182247672
2.023	0.1913274250164426	0.4934704560966364	0.3164689730419499	0.1947795287944563	0.2906517567273634	0.4482608291529485
2.024	0.1918035996963012	0.4860648907081115	0.3166987142131106	0.2020703071866424	0.2885017994681244	0.4494376635494324
2.025	0.1922796666025689	0.4786768127913267	0.3170032690844132	0.2095049919490274	0.286281931294058	0.4506038218144957
2.0260000000000002	0.1927556133020069	0.4713088324381009	0.3173826808233103	0.2170816809418368	0.2839931877422339	0.451754962091987
2.027	0.193231438993564	0.4639635622018836	0.31783692969525	0.2247983417518184	0.2816367101502817	0.4528867091145555
2.028	0.193707153179025	0.4566436134876241	0.3183659329159857	0.2326528127372574	0.2792137424725494	0.4539946631831495
2.029	0.1941827743478404	0.4493515929112703	0.3189695445350015	0.2406428042465533	0.2767256278750576	0.4550744092531801
2.0300000000000002	0.1946583286812799	0.4420900986451596	0.3196475553519538	0.2487659000078706	0.2741738051275673	0.4561215260983877
2.031	0.1951338487805715	0.4348617167645543	0.320399692867986	0.2570195586866833	0.2715598048113047	0.4571315955221443
2.032	0.195609372423628	0.4276690176104689	0.3212256212728376	0.2654011156074047	0.2688852453610829	0.4581002115845586
2.033	0.196084941353727	0.4205145521826545	0.3221249414688659	0.2739077846343123	0.2661518289605142	0.4590229898131912
2.0340000000000003	0.1965606001037881	0.4134008485757356	0.3230971911320357	0.2825366602063615	0.2633613373087567	0.45989557636473
2.035	0.1970363948589491	0.4063304084706176	0.3241418448103232	0.291284719519654	0.2605156272767356	0.4607136571056477
2.036	0.1975123723604936	0.3993057036914904	0.3252583140594378	0.3001488248506736	0.2576166264700604	0.4614729665805905
2.037	0.1979885788533579	0.3923291728382267	0.3264459476156655	0.3091257260129695	0.2546663287152273	0.4621692968386047
2.0380000000000003	0.198465059079661	0.3854032180027189	0.3277040316054004	0.3182120629393649	0.2516667894849025	0.4627985060891617
2.039	0.1989418553206356	0.378530201576595	0.3290317897901222	0.3274043683814798	0.2486201212774936	0.463356527163114
2.04	0.1994190064884581	0.3717124431569543	0.3304283838456326	0.336699070718143	0.2455284889654893	0.4638393757578581
2.041	0.1998965472697207	0.364952216555783	0.3318929136735106	0.3460924968638237	0.242394105126464	0.4642431584510414
